<svg
   xmlns:dc="http://purl.org/dc/elements/1.1/"
   xmlns:cc="http://creativecommons.org/ns#"
   xmlns:rdf="http://www.w3.org/1999/02/22-rdf-syntax-ns#"
   xmlns:svg="http://www.w3.org/2000/svg"
   xmlns="http://www.w3.org/2000/svg"
   id="svg68"
   version="1.1"
   viewBox="0 1 380 280">
  <metadata
     id="metadata74">
    <rdf:RDF>
      <cc:Work
         rdf:about="">
        <dc:format>image/svg+xml</dc:format>
        <dc:type
           rdf:resource="http://purl.org/dc/dcmitype/StillImage" />
      </cc:Work>
    </rdf:RDF>
  </metadata>
  <defs
     id="defs72" />
  <svg
     id="svg25"
     version="1.1"
     height="64"
     width="64"
     y="108"
     x="84.5">
    <svg
       height="100%"
       width="100%"
       id="svg23"
       version="1.1"
       viewBox="0 0 200 200">
      <defs
         id="defs5">
        <mask
           id="id__12352110">
          <circle
             style="fill:#ffffff"
             id="circle2"
             r="100"
             cy="100"
             cx="100" />
        </mask>
      </defs>
      <g
         style="fill:#ffffff"
         id="g21"
         mask="url(#id__12352110)">
        <path
           id="rect7"
           d="M -1,-1 H 201 V 201 H -1 Z"
           style="fill:#011658" />
        <svg
           id="svg19"
           version="1.1"
           height="147.79736"
           width="200"
           y="76.101318"
           x="0.0">
          <svg
             height="100%"
             width="100%"
             id="svg17"
             version="1.1"
             viewBox="0 0 90.8 67.1"
             enable-background="new 0 0 90.8 67.1">
            <g
               style="fill:#ffffff"
               id="g15">
              <g
                 style="clip-rule:evenodd;fill-rule:evenodd"
                 id="g13">
                <path
                   style="fill:#ffffff"
                   id="path9"
                   d="M 20,0 71.2,33.5 58.1,42.1 48,35.6 51.1,33.6 0,0 Z M 42.8,52.2 20,67.1 H 0 L 32.7,45.6 Z" />
                <path
                   style="fill:#ffffff"
                   id="path11"
                   d="M 70.8,0 48,14.9 58,21.5 90.8,0 Z m -38,24.9 -13.1,8.6 51.1,33.6 h 20 l -51.1,-33.5 3.1,-2 z" />
              </g>
            </g>
          </svg>
        </svg>
      </g>
    </svg>
  </svg>
  <g
     transform="translate(222,133)"
     id="id__47672966">
    <g
       id="text27"
       style="font-size:36px;font-family:IDDianKai;fill:#011658"
       aria-label="永">
      <path
         id="path77"
         style="font-size:36px;font-family:IDDianKai;fill:#011658"
         d="m -43.521,-11.2995 q 0.72,0.396 1.332,0.864 0.648,0.432 1.08,0.972 0.396,0.432 -0.18,0.9 -2.016,1.512 -4.176,2.88 -2.124,1.332 -4.068,2.484 2.556,3.096 4.644,5.292 2.088,2.16 3.528,3.132 1.008,0.648 2.268,1.332 1.26,0.648 3.096,1.476 0.36,0.144 0.324,0.324 0,0.144 -0.36,0.252 -2.52,0.576 -5.292,0.612 -0.9,0 -1.368,-0.216 -0.432,-0.252 -1.044,-0.972 -1.008,-1.296 -2.088,-2.808 -1.044,-1.512 -2.124,-3.096 -1.08,-1.62 -2.124,-3.276 -1.044,-1.656 -2.016,-3.276 0,1.404 0,3.096 0,1.656 0,3.42 0,1.764 0,3.492 0.036,1.728 0.072,3.24 0.036,1.188 -0.108,2.124 -0.108,0.9 -0.432,1.656 -0.288,0.756 -0.792,1.404 -0.468,0.648 -1.152,1.332 -0.504,0.504 -0.936,-0.144 -0.648,-1.152 -1.512,-2.124 -0.828,-0.936 -1.8,-1.836 -0.216,-0.252 -0.18,-0.288 0.036,-0.036 0.468,0.036 0.576,0.072 1.224,0.216 0.648,0.108 1.08,0.18 0.612,0.072 0.972,-0.144 0.36,-0.216 0.504,-1.044 0.288,-1.332 0.396,-3.888 0.144,-2.556 0.324,-6.84 0.108,-2.772 0.108,-4.608 0,-1.872 -0.108,-3.132 0,-0.54 -0.864,-0.396 -0.72,0.108 -1.62,0.396 -0.864,0.252 -1.836,0.54 -0.54,0.144 -0.972,0.072 -0.396,-0.108 -1.26,-0.684 -0.288,-0.18 -0.252,-0.216 0.036,-0.036 0.36,-0.072 0.792,-0.072 1.836,-0.252 1.08,-0.216 2.16,-0.504 0.9,-0.252 1.404,-0.54 0.504,-0.288 1.116,-0.756 0.252,-0.216 0.36,-0.216 0.144,-0.036 0.468,0.072 0.612,0.18 1.224,0.396 0.612,0.216 1.224,0.54 0.36,0.18 0.324,0.288 0,0.108 -0.396,0.54 -0.612,0.756 -0.972,1.548 -0.324,0.792 -0.396,1.98 0.54,0.504 1.008,1.008 0.504,0.468 1.008,0.972 0.756,-0.576 1.476,-1.188 0.72,-0.648 1.332,-1.224 0.648,-0.612 1.152,-1.08 0.504,-0.504 0.792,-0.828 0.864,-0.936 1.116,-1.62 0.288,-0.72 0.144,-1.476 -0.072,-0.324 0.036,-0.396 0.108,-0.072 0.468,0.072 z m -16.884,9.252 q -1.26,0.396 -2.484,0.864 -1.224,0.432 -2.304,0.936 -0.432,0.18 -0.792,-0.036 -0.324,-0.216 -0.9,-1.188 -0.144,-0.252 -0.144,-0.288 0,-0.036 0.18,-0.036 0.504,-0.036 1.008,-0.072 0.504,-0.072 1.116,-0.18 0.612,-0.144 1.404,-0.324 0.828,-0.216 1.98,-0.504 0.72,-0.18 1.26,-0.396 0.576,-0.216 1.044,-0.576 0.288,-0.288 0.396,-0.288 0.144,-0.036 0.432,0.108 1.188,0.468 2.052,1.368 0.18,0.18 0.18,0.288 0,0.108 -0.288,0.396 -0.504,0.612 -1.08,1.44 -0.54,0.828 -1.296,2.052 -1.188,2.016 -2.304,3.528 -1.08,1.512 -2.196,2.664 -1.116,1.116 -2.34,1.944 -1.188,0.828 -2.592,1.512 -0.288,0.108 -0.36,0.036 -0.036,-0.072 0.216,-0.252 1.476,-1.296 2.664,-2.52 1.224,-1.224 2.232,-2.592 1.008,-1.368 1.872,-2.988 0.9,-1.62 1.728,-3.708 0.504,-1.368 -0.684,-1.188 z m 5.436,-14.76 q 0.972,-0.108 1.764,-0.072 0.828,0.036 1.8,0.216 1.152,0.18 1.656,0.756 0.504,0.576 0.216,1.512 -0.144,0.396 -0.432,0.54 -0.252,0.108 -0.828,-0.036 -0.612,-0.144 -1.296,-0.432 -0.648,-0.288 -1.26,-0.612 -0.612,-0.36 -1.116,-0.756 -0.468,-0.396 -0.684,-0.72 -0.216,-0.324 0.18,-0.396 z" />
    </g>
    <g
       id="text29"
       style="font-size:36px;font-family:IDDianKai;fill:#011658"
       aria-label="业">
      <path
         id="path80"
         style="font-size:36px;font-family:IDDianKai;fill:#011658"
         d="m -23.171,-11.7675 q 0.612,0.144 1.152,0.396 0.576,0.216 1.152,0.468 0.396,0.18 0.468,0.36 0.108,0.18 -0.036,0.54 -0.18,0.684 -0.288,1.692 -0.108,1.008 -0.144,1.98 -0.036,2.16 -0.108,4.464 -0.036,2.268 -0.108,4.464 -0.036,2.196 -0.108,4.176 -0.036,1.944 -0.072,3.384 1.296,-0.18 2.448,-0.324 1.152,-0.18 2.34,-0.288 0.144,-2.016 0.252,-4.356 0.144,-2.376 0.252,-4.644 0.144,-2.304 0.252,-4.284 0.108,-2.016 0.18,-3.384 0.108,-1.836 0.108,-3.024 0.036,-1.188 -0.072,-1.944 -0.108,-0.792 -0.36,-1.296 -0.252,-0.504 -0.684,-0.972 -0.288,-0.36 -0.108,-0.432 0.216,-0.072 0.612,0 0.9,0.144 1.8,0.432 0.936,0.288 1.656,0.648 0.396,0.18 0.18,0.612 -0.396,1.116 -0.684,2.412 -0.252,1.296 -0.432,3.024 -0.144,1.908 -0.324,4.284 -0.18,2.376 -0.396,5.616 1.44,-1.872 2.664,-3.636 1.26,-1.764 2.052,-3.096 0.72,-1.116 0.864,-1.908 0.144,-0.792 -0.036,-1.404 -0.18,-0.828 0.612,-0.432 0.828,0.324 1.44,0.756 0.612,0.396 1.08,0.864 0.36,0.324 0.36,0.504 0,0.144 -0.468,0.504 -0.468,0.324 -1.008,0.864 -0.54,0.54 -0.936,0.972 -1.62,1.908 -3.312,3.672 -1.692,1.764 -3.312,3.024 -0.144,1.8 -0.252,3.384 -0.072,1.548 -0.144,3.096 2.016,-0.324 3.564,-0.54 1.584,-0.252 2.952,-0.468 1.332,-0.216 2.196,-0.288 0.864,-0.072 1.44,0.072 0.576,0.108 0.972,0.468 0.396,0.36 0.828,0.936 0.612,0.792 0.324,1.26 -0.252,0.468 -1.116,0.288 -1.08,-0.216 -2.088,-0.36 -1.008,-0.18 -2.016,-0.252 -1.008,-0.072 -2.088,-0.036 -1.08,0 -2.304,0.108 -5.832,0.504 -10.332,0.972 -4.464,0.468 -7.956,1.26 -0.396,0.108 -0.684,0.144 -0.288,0.036 -0.576,-0.036 -0.288,-0.072 -0.648,-0.324 -0.36,-0.216 -0.936,-0.684 -0.288,-0.18 -0.324,-0.288 0,-0.144 0.612,-0.18 1.188,-0.072 2.736,-0.216 1.548,-0.18 3.816,-0.504 0.828,-0.144 1.584,-0.18 0.792,-0.036 1.764,-0.216 0.036,-2.124 0.072,-4.392 0.072,-2.268 0.108,-4.428 0.036,-2.16 0.036,-4.068 0,-1.908 -0.036,-3.384 0,-1.188 -0.072,-2.016 -0.036,-0.828 -0.144,-1.404 -0.108,-0.576 -0.324,-0.972 -0.18,-0.432 -0.432,-0.792 -0.396,-0.504 -0.252,-0.648 0.18,-0.18 0.792,0 z m -5.94,8.748 q -0.072,-0.36 -0.036,-0.396 0.072,-0.036 0.252,0.072 0.9,0.36 1.62,0.972 0.72,0.612 1.188,1.332 0.864,1.224 0.864,2.448 0,1.188 -0.648,2.52 -0.324,0.72 -0.756,0.18 -0.936,-1.296 -1.584,-3.096 -0.612,-1.836 -0.9,-4.032 z" />
    </g>
    <g
       id="text31"
       style="font-size:36px;font-family:IDDianKai;fill:#011658"
       aria-label="环">
      <path
         id="path83"
         style="font-size:36px;font-family:IDDianKai;fill:#011658"
         d="m 31.883,-12.9195 q 0.504,0.504 0.288,0.792 -0.18,0.252 -0.792,0.252 -1.152,-0.036 -2.376,0.036 -1.188,0.072 -2.556,0.288 -0.612,0.072 -1.368,0.216 -0.756,0.108 -1.872,0.36 0.72,0.36 1.152,0.684 0.468,0.324 0.828,0.612 0.18,0.144 0.18,0.288 0,0.108 -0.216,0.324 -0.36,0.396 -0.684,0.864 -0.324,0.432 -0.792,1.152 -0.396,0.684 -0.792,1.368 -0.396,0.684 -0.72,1.296 0,0 0.144,0.252 0.18,0.216 0.324,0.576 0.144,0.36 0.108,0.864 -0.072,1.764 -0.144,3.6 -0.036,1.8 -0.108,3.528 -0.036,1.692 -0.072,3.204 -0.036,1.512 -0.072,2.628 0,1.872 -0.18,2.988 -0.18,1.116 -0.576,1.8 -0.396,0.828 -0.828,0.072 -0.468,-0.72 -0.72,-1.332 -0.252,-0.612 -0.504,-1.656 -0.036,-0.144 0,-0.468 0.072,-0.36 0.144,-0.648 0.144,-0.576 0.288,-1.404 0.18,-0.864 0.288,-2.088 0.144,-1.224 0.252,-2.88 0.108,-1.656 0.18,-3.816 0.036,-0.72 0,-1.404 0,-0.72 -0.144,-1.656 -1.764,2.736 -3.348,4.752 -1.584,2.016 -3.096,3.492 -1.512,1.44 -2.988,2.484 -1.476,1.044 -2.988,1.836 -0.396,0.18 -0.468,0.072 -0.072,-0.108 0.216,-0.36 3.384,-2.772 6.48,-6.444 3.132,-3.672 5.508,-7.668 -0.288,-0.216 -0.468,-0.432 -0.18,-0.216 -0.396,-0.396 -0.288,-0.324 -0.108,-0.504 0.18,-0.216 0.576,-0.036 0.18,0.072 0.432,0.108 0.288,0.036 0.576,0.216 0.396,-0.72 0.72,-1.296 0.324,-0.612 0.576,-1.188 0.504,-1.008 0.648,-1.8 0.18,-0.792 0.144,-1.512 -1.728,0.324 -3.312,0.684 -1.548,0.36 -2.844,0.72 -0.396,0.108 -0.72,0.144 -0.324,0.036 -0.684,0 -0.324,-0.072 -0.756,-0.18 -0.396,-0.144 -0.936,-0.396 -0.288,-0.144 -0.252,-0.18 0.072,-0.072 0.504,-0.144 1.044,-0.18 2.052,-0.288 1.008,-0.108 2.52,-0.432 3.564,-0.792 6.3,-1.404 2.736,-0.612 4.104,-0.972 1.008,-0.288 1.764,-0.252 0.756,0.036 1.584,0.684 z m -28.476,9.648 q 0.756,-0.18 1.692,-0.432 0.972,-0.288 2.016,-0.648 v -1.008 q 0.072,-1.908 0,-2.952 -0.072,-1.08 -0.288,-1.908 l -1.512,0.288 q -0.504,0.072 -1.08,0 -0.54,-0.072 -1.152,-0.36 -0.216,-0.144 0.072,-0.216 0.648,-0.144 1.512,-0.36 0.864,-0.216 1.8,-0.468 0.936,-0.252 1.872,-0.504 0.936,-0.288 1.764,-0.576 1.008,-0.36 1.548,-0.324 0.576,0 1.26,0.36 0.36,0.18 0.324,0.288 0,0.108 -0.396,0.288 -0.72,0.324 -2.088,0.648 -1.368,0.324 -3.096,0.72 0.612,0.216 0.9,0.396 0.288,0.144 0.54,0.324 0.144,0.072 0.144,0.216 0,0.144 -0.072,0.468 -0.144,0.504 -0.288,1.296 -0.144,0.756 -0.288,1.8 0,0.252 0,0.432 0,0.144 -0.036,0.54 0.468,-0.18 0.828,-0.288 0.36,-0.108 0.648,-0.216 1.044,-0.432 1.548,-0.468 0.504,-0.036 1.116,0.36 0.684,0.36 -0.108,0.792 -0.504,0.252 -1.62,0.612 -1.116,0.36 -2.484,0.72 l -0.216,7.164 q 1.26,-0.72 2.484,-1.332 1.224,-0.648 2.412,-1.224 0.684,-0.36 0.72,-0.144 0.072,0.216 -0.54,0.648 -3.564,2.484 -6.12,4.5 -2.556,1.98 -3.924,3.312 -0.288,0.288 -0.432,0.288 -0.144,0 -0.432,-0.216 -0.396,-0.288 -0.828,-0.9 -0.396,-0.648 -0.612,-1.152 -0.072,-0.216 -0.036,-0.252 0.036,-0.072 0.18,-0.072 0.756,-0.036 1.368,-0.216 0.648,-0.18 1.296,-0.576 0.612,-0.396 1.296,-0.792 0.72,-0.432 1.62,-1.008 0.072,-1.98 0.144,-3.924 0.072,-1.98 0.18,-3.744 -0.684,0.108 -1.116,0.216 -0.396,0.108 -0.756,0.18 -0.36,0.072 -0.864,0.036 -0.504,-0.072 -0.936,-0.252 -0.504,-0.252 0.036,-0.36 z m 21.024,2.268 q -0.18,-0.36 -0.144,-0.396 0.036,-0.036 0.432,0.108 0.504,0.144 1.224,0.504 0.72,0.324 1.476,0.792 0.792,0.432 1.548,1.008 0.792,0.576 1.44,1.152 1.08,0.936 1.548,2.124 0.504,1.188 0.324,2.916 -0.108,1.404 -0.828,0.756 -0.252,-0.252 -0.792,-0.864 -0.504,-0.612 -1.188,-1.44 -0.648,-0.828 -1.404,-1.764 -0.72,-0.972 -1.44,-1.872 -0.684,-0.936 -1.296,-1.728 -0.576,-0.792 -0.9,-1.296 z" />
    </g>
    <g
       id="text33"
       style="font-size:36px;font-family:IDDianKai;fill:#011658"
       aria-label="境">
      <path
         id="path86"
         style="font-size:36px;font-family:IDDianKai;fill:#011658"
         d="m 55.869,10.3365 q 0,-0.54 0,-0.972 0.036,-0.432 0.036,-1.044 0.072,-1.548 -0.072,-2.448 -0.108,-0.9 -0.36,-1.584 l -3.78,0.684 q 0.504,0.504 0.792,0.864 0.288,0.36 0.504,0.648 0.288,0.324 -0.036,0.648 -0.468,0.396 -0.864,0.792 -0.396,0.396 -1.008,1.044 -2.052,2.232 -4.536,3.564 -2.448,1.368 -5.076,2.052 -0.396,0.144 -0.468,0 -0.036,-0.144 0.324,-0.324 5.832,-2.808 8.568,-6.408 0.504,-0.648 0.792,-1.368 0.288,-0.72 0.432,-1.548 -0.288,0.18 -0.288,0.18 0,0 -0.036,0.036 -0.18,0.252 -0.288,0.288 -0.072,0 -0.252,-0.072 -0.396,-0.216 -0.684,-0.504 -0.252,-0.324 -0.396,-1.008 -0.108,-0.792 -0.36,-1.872 -0.252,-1.08 -0.576,-2.196 -0.288,-1.152 -0.612,-1.8 -0.324,-0.684 -0.72,-1.152 -0.396,-0.468 0.18,-0.396 0.972,0 1.728,0.108 0.072,0 0.144,0.036 0.072,0.036 0.288,0.036 0.756,-0.108 1.728,-0.252 1.008,-0.144 2.052,-0.324 1.044,-0.18 1.98,-0.36 0.972,-0.18 1.692,-0.324 0.828,-0.18 1.548,-0.396 0.72,-0.252 1.332,-0.504 0.36,-0.18 0.756,-0.036 0.756,0.216 1.44,0.612 0.684,0.36 1.08,0.648 0.36,0.288 0.072,0.684 -1.044,1.368 -1.548,3.456 -0.468,1.98 -0.864,3.06 -0.36,1.08 -0.72,1.584 -0.432,0.684 -0.828,0.072 -0.108,-0.18 -0.18,-0.288 -0.036,-0.144 -0.108,-0.396 -0.612,0.108 -1.26,0.18 -0.612,0.072 -1.584,0.252 0.828,0.468 1.224,0.792 0.432,0.324 0.72,0.612 0.18,0.18 0.18,0.288 0,0.108 -0.144,0.432 -0.324,0.936 -0.504,1.728 -0.144,0.792 -0.108,1.728 0.072,1.368 0.756,1.944 0.72,0.576 2.304,0.684 1.08,0.072 2.34,-0.072 1.26,-0.108 2.268,-0.54 0.54,-0.18 0.864,-0.684 0.324,-0.504 0.504,-1.116 0.18,-0.504 0.288,-1.44 0.144,-0.972 0.252,-2.124 0.072,-0.396 0.18,-0.36 0.108,0 0.108,0.36 0.072,1.728 0.252,2.736 0.18,0.972 0.36,1.584 0.144,0.504 0.108,0.756 0,0.216 -0.18,0.54 -0.288,0.504 -0.9,0.936 -0.612,0.432 -1.548,0.684 -0.54,0.18 -1.224,0.288 -0.648,0.108 -1.332,0.144 -0.684,0.072 -1.332,0.072 -0.612,0 -1.152,-0.036 -2.124,-0.18 -3.168,-1.116 -1.008,-0.936 -1.08,-2.772 z m -14.688,-24.192 q 0.576,0.18 1.044,0.324 0.468,0.144 1.008,0.54 0.252,0.144 0.288,0.252 0.072,0.108 -0.036,0.432 -0.288,0.972 -0.468,1.98 -0.144,0.972 -0.252,2.664 0,0.252 -0.036,0.612 -0.036,0.324 -0.072,0.828 0.396,-0.072 0.648,-0.144 0.252,-0.108 0.468,-0.18 0.792,-0.36 1.188,-0.36 0.396,0 0.9,0.504 0.108,0.144 0.288,0.108 0.18,-0.036 0.288,0 0.792,0 2.052,-0.18 1.296,-0.216 2.448,-0.432 1.404,-0.288 2.628,-0.504 1.224,-0.216 2.376,-0.504 0.54,-0.72 0.972,-1.476 0.432,-0.756 0.684,-1.368 0.18,-0.504 0.252,-0.9 0.072,-0.432 -0.072,-0.936 -1.62,0.36 -3.06,0.648 -1.44,0.252 -2.232,0.36 -0.792,0.108 -1.368,0.072 -0.54,-0.036 -1.332,-0.216 -0.288,-0.072 -0.288,-0.072 0,-0.036 0.288,-0.072 1.08,-0.18 2.34,-0.432 1.26,-0.288 2.52,-0.576 1.296,-0.324 2.52,-0.612 1.224,-0.324 2.232,-0.576 0.864,-0.252 1.296,-0.252 0.468,0 0.936,0.36 0.288,0.18 0.252,0.288 0,0.072 -0.324,0.216 -0.396,0.108 -1.188,0.324 -0.756,0.18 -1.944,0.468 0.72,0.216 1.044,0.396 0.324,0.144 0.612,0.288 0.324,0.18 0,0.54 -0.648,0.72 -1.512,1.548 -0.828,0.828 -1.872,1.872 2.088,-0.504 3.564,-0.828 1.476,-0.36 2.844,-0.72 1.044,-0.288 1.62,-0.18 0.576,0.072 1.296,0.612 0.576,0.396 0.432,0.756 -0.108,0.324 -0.648,0.324 -0.972,0 -1.8,0 -0.828,0 -1.62,0.072 -0.756,0.036 -1.62,0.144 -0.828,0.108 -1.836,0.252 -1.296,0.216 -2.7,0.468 -1.368,0.252 -2.736,0.54 -1.332,0.288 -2.592,0.612 -1.26,0.288 -2.34,0.576 -0.54,0.144 -1.008,0.072 -0.432,-0.108 -1.332,-0.576 -0.072,-0.036 -0.036,0.036 0.036,0.072 0,0.072 h -0.36 q -0.468,0.18 -1.368,0.468 -0.864,0.252 -1.872,0.576 l -0.288,7.992 q 1.692,-1.044 3.528,-2.052 0.396,-0.252 0.468,0 0.072,0.216 -0.396,0.612 -1.764,1.368 -3.096,2.448 -1.296,1.08 -2.268,1.944 -0.972,0.864 -1.692,1.548 -0.684,0.648 -1.188,1.188 -0.288,0.288 -0.432,0.288 -0.144,0 -0.324,-0.144 -0.396,-0.396 -0.684,-0.792 -0.252,-0.432 -0.504,-0.936 -0.144,-0.288 -0.18,-0.396 -0.036,-0.108 0.216,-0.144 0.9,-0.18 1.476,-0.396 0.576,-0.252 1.332,-0.756 0.576,-0.396 1.152,-0.756 0.612,-0.396 1.188,-0.756 l 0.36,-8.604 q -0.612,0.18 -0.972,0.288 -0.36,0.108 -0.54,0.144 -0.612,0.036 -1.188,0 -0.576,-0.072 -1.26,-0.432 -0.18,-0.108 -0.18,-0.18 0.036,-0.072 0.18,-0.072 1.764,-0.36 3.996,-1.044 l 0.144,-2.736 q 0.072,-1.152 0.072,-1.944 0,-0.828 -0.108,-1.368 -0.072,-0.576 -0.216,-0.972 -0.144,-0.396 -0.36,-0.684 -0.18,-0.288 -0.072,-0.396 0.144,-0.108 0.432,0 z m 10.044,10.908 q -0.612,0.18 -0.972,0.108 -0.36,-0.108 -0.972,-0.468 l 0.756,3.708 q 1.296,-0.324 2.808,-0.72 1.548,-0.396 2.664,-0.792 0.792,-0.288 1.152,-0.216 0.36,0.072 0.684,0.468 0.396,0.54 -0.18,0.72 -0.432,0.144 -1.044,0.324 -0.612,0.144 -1.332,0.324 -0.72,0.144 -1.476,0.288 -0.72,0.144 -1.368,0.252 -0.396,0.072 -0.828,0.036 -0.432,-0.036 -1.044,-0.252 0.216,0.936 0.324,1.512 0.108,0.576 0.18,1.08 0.072,0.18 0.072,0.36 0,0.18 0.036,0.504 0.756,-0.144 1.656,-0.324 0.9,-0.18 1.764,-0.324 0.864,-0.18 1.62,-0.288 0.756,-0.144 1.26,-0.216 0.54,-0.072 0.828,-0.036 0.324,0 0.72,0.288 0.144,-0.288 0.144,-0.36 0.036,-0.072 0.072,-0.252 0.216,-0.756 0.396,-1.584 0.18,-0.864 0.324,-1.692 0.144,-0.828 0.252,-1.584 0.108,-0.756 0.144,-1.332 0.072,-0.504 -0.252,-0.72 -0.324,-0.252 -1.26,-0.072 -0.648,0.108 -1.584,0.288 -0.9,0.144 -1.872,0.324 -0.972,0.18 -1.944,0.36 -0.972,0.144 -1.728,0.288 z m 2.592,-13.5 q 0.72,-0.144 1.476,-0.144 0.792,-0.036 1.548,-0.036 0.72,0 1.08,0.468 0.396,0.432 0.252,1.152 -0.072,0.54 -0.684,0.432 -0.936,-0.216 -2.052,-0.72 -1.08,-0.504 -1.8,-1.008 -0.18,-0.144 -0.144,-0.108 0.072,0 0.324,-0.036 z m -2.736,5.868 q -0.072,-0.108 -0.072,-0.18 0.036,-0.072 0.324,0 0.612,0.108 1.08,0.252 0.504,0.108 0.792,0.288 0.936,0.576 0.036,1.764 -0.072,0.144 -0.18,0.216 -0.108,0.072 -0.36,-0.072 -0.612,-0.396 -1.008,-1.008 -0.396,-0.612 -0.612,-1.26 z" />
    </g>
    <g
       id="text35"
       style="font-size:12px;font-family:'Heiti SC';fill:#666666"
       aria-label="Y">
      <path
         id="path89"
         style="font-size:12px;font-family:'Heiti SC';fill:#666666"
         d="m -58.97175,24.4765 h 0.996 l 2.196,3.552 2.172,-3.552 h 0.996 l -2.736,4.5 v 4.116 h -0.84 v -4.116 z" />
    </g>
    <g
       id="text37"
       style="font-size:12px;font-family:'Heiti SC';fill:#666666"
       aria-label="O">
      <path
         id="path92"
         style="font-size:12px;font-family:'Heiti SC';fill:#666666"
         d="m -51.48425,28.8205 q 0,-1.248 0.6,-2.304 0.6,-1.056 1.644,-1.656 1.044,-0.6 2.268,-0.6 1.236,0 2.292,0.6 1.068,0.588 1.668,1.644 0.612,1.044 0.612,2.28 0,1.224 -0.6,2.28 -0.6,1.044 -1.656,1.644 -1.044,0.6 -2.28,0.6 -1.224,0 -2.28,-0.588 -1.056,-0.6 -1.668,-1.644 -0.6,-1.044 -0.6,-2.256 z m 8.184,-0.036 q 0,-1.548 -1.08,-2.616 -1.068,-1.068 -2.58,-1.068 -1.548,0 -2.592,1.08 -1.032,1.068 -1.032,2.616 0,1.536 1.068,2.604 1.068,1.068 2.58,1.068 1.512,0 2.568,-1.044 1.068,-1.044 1.068,-2.64 z" />
    </g>
    <g
       id="text39"
       style="font-size:12px;font-family:'Heiti SC';fill:#666666"
       aria-label="N">
      <path
         id="path95"
         style="font-size:12px;font-family:'Heiti SC';fill:#666666"
         d="m -41.10025,33.0925 v -8.616 h 0.192 l 5.724,6.6 v -6.6 h 0.852 v 8.616 h -0.192 l -5.688,-6.516 v 6.516 z" />
    </g>
    <g
       id="text41"
       style="font-size:12px;font-family:'Heiti SC';fill:#666666"
       aria-label="E">
      <path
         id="path98"
         style="font-size:12px;font-family:'Heiti SC';fill:#666666"
         d="m -33.16275,24.4765 h 4.944 v 0.852 h -4.08 v 2.688 h 4.044 v 0.84 h -4.044 v 3.384 h 4.044 v 0.852 h -4.908 z" />
    </g>
    <g
       id="text43"
       style="font-size:12px;font-family:'Heiti SC';fill:#666666" />
    <g
       id="text45"
       style="font-size:12px;font-family:'Heiti SC';fill:#666666"
       aria-label="E">
      <path
         id="path102"
         style="font-size:12px;font-family:'Heiti SC';fill:#666666"
         d="m -20.66275,24.4765 h 4.944 v 0.852 h -4.08 v 2.688 h 4.044 v 0.84 h -4.044 v 3.384 h 4.044 v 0.852 h -4.908 z" />
    </g>
    <g
       id="text47"
       style="font-size:12px;font-family:'Heiti SC';fill:#666666"
       aria-label="N">
      <path
         id="path105"
         style="font-size:12px;font-family:'Heiti SC';fill:#666666"
         d="m -14.60025,33.0925 v -8.616 h 0.192 l 5.724,6.6 v -6.6 h 0.852 v 8.616 h -0.192 l -5.688,-6.516 v 6.516 z" />
    </g>
    <g
       id="text49"
       style="font-size:12px;font-family:'Heiti SC';fill:#666666"
       aria-label="V">
      <path
         id="path108"
         style="font-size:12px;font-family:'Heiti SC';fill:#666666"
         d="m -6.76025,24.4765 h 0.936 l 2.856,6.876 2.904,-6.876 h 0.936 l -3.756,8.832 h -0.18 z" />
    </g>
    <g
       id="text51"
       style="font-size:12px;font-family:'Heiti SC';fill:#666666"
       aria-label="I">
      <path
         id="path111"
         style="font-size:12px;font-family:'Heiti SC';fill:#666666"
         d="m 2.08025,24.4765 h 0.864 v 8.616 h -0.864 z" />
    </g>
    <g
       id="text53"
       style="font-size:12px;font-family:'Heiti SC';fill:#666666"
       aria-label="R">
      <path
         id="path114"
         style="font-size:12px;font-family:'Heiti SC';fill:#666666"
         d="m 4.18575,24.4765 h 1.716 q 1.44,0 1.968,0.132 0.528,0.12 0.9,0.408 0.384,0.288 0.6,0.744 0.216,0.456 0.216,1.008 0,1.104 -0.78,1.74 -0.78,0.624 -2.208,0.576 l 3.108,4.008 h -1.068 l -3.096,-4.008 h -0.492 v 4.008 h -0.864 z m 0.864,0.84 v 2.928 h 1.488 q 1.104,0.012 1.62,-0.336 0.528,-0.36 0.528,-1.128 0,-0.768 -0.516,-1.116 -0.516,-0.348 -1.596,-0.348 z" />
    </g>
    <g
       id="text55"
       style="font-size:12px;font-family:'Heiti SC';fill:#666666"
       aria-label="O">
      <path
         id="path117"
         style="font-size:12px;font-family:'Heiti SC';fill:#666666"
         d="m 10.95325,28.8205 q 0,-1.248 0.6,-2.304 0.6,-1.056 1.644,-1.656 1.044,-0.6 2.268,-0.6 1.236,0 2.292,0.6 1.068,0.588 1.668,1.644 0.612,1.044 0.612,2.28 0,1.224 -0.6,2.28 -0.6,1.044 -1.656,1.644 -1.044,0.6 -2.28,0.6 -1.224,0 -2.28,-0.588 -1.056,-0.6 -1.668,-1.644 -0.6,-1.044 -0.6,-2.256 z m 8.184,-0.036 q 0,-1.548 -1.08,-2.616 -1.068,-1.068 -2.58,-1.068 -1.548,0 -2.592,1.08 -1.032,1.068 -1.032,2.616 0,1.536 1.068,2.604 1.068,1.068 2.58,1.068 1.512,0 2.568,-1.044 1.068,-1.044 1.068,-2.64 z" />
    </g>
    <g
       id="text57"
       style="font-size:12px;font-family:'Heiti SC';fill:#666666"
       aria-label="N">
      <path
         id="path120"
         style="font-size:12px;font-family:'Heiti SC';fill:#666666"
         d="m 21.33725,33.0925 v -8.616 h 0.192 l 5.724,6.6 v -6.6 h 0.852 v 8.616 h -0.192 l -5.688,-6.516 v 6.516 z" />
    </g>
    <g
       id="text59"
       style="font-size:12px;font-family:'Heiti SC';fill:#666666"
       aria-label="M">
      <path
         id="path123"
         style="font-size:12px;font-family:'Heiti SC';fill:#666666"
         d="m 29.25375,33.0925 1.224,-8.616 h 0.132 l 3.504,7.068 3.48,-7.068 h 0.132 l 1.236,8.616 h -0.852 l -0.84,-6.168 -3.048,6.168 h -0.216 l -3.084,-6.216 -0.84,6.216 z" />
    </g>
    <g
       id="text61"
       style="font-size:12px;font-family:'Heiti SC';fill:#666666"
       aria-label="E">
      <path
         id="path126"
         style="font-size:12px;font-family:'Heiti SC';fill:#666666"
         d="m 40.21225,24.4765 h 4.944 v 0.852 h -4.08 v 2.688 h 4.044 v 0.84 h -4.044 v 3.384 h 4.044 v 0.852 h -4.908 z" />
    </g>
    <g
       id="text63"
       style="font-size:12px;font-family:'Heiti SC';fill:#666666"
       aria-label="N">
      <path
         id="path129"
         style="font-size:12px;font-family:'Heiti SC';fill:#666666"
         d="m 46.27475,33.0925 v -8.616 h 0.192 l 5.724,6.6 v -6.6 h 0.852 v 8.616 h -0.192 l -5.688,-6.516 v 6.516 z" />
    </g>
    <g
       id="text65"
       style="font-size:12px;font-family:'Heiti SC';fill:#666666"
       aria-label="T">
      <path
         id="path132"
         style="font-size:12px;font-family:'Heiti SC';fill:#666666"
         d="m 54.09825,25.3165 v -0.84 h 4.728 v 0.84 h -1.92 v 7.776 h -0.876 v -7.776 z" />
    </g>
  </g>
</svg>
